<svg width="512" height="512" viewBox="0 0 512 512" fill="none" xmlns="http://www.w3.org/2000/svg">
<rect width="512" height="512" fill="#DAE7FD"/>
<path d="M256.941 261.196H255.1V259.355H256.941V261.196Z" fill="#2A232B"/>
<path d="M431.637 443.918C427.595 435.183 416.554 422.239 404.287 418.663C389.123 414.24 354.893 408.893 342.201 405.921C332.027 403.536 311.534 385.134 304.353 378.957C303.064 377.853 302.01 375.573 301.984 373.878C301.728 353.882 309.705 300.765 309.705 300.765H256.021H202.338C202.338 300.765 210.315 353.88 210.056 373.878C210.035 375.573 208.975 377.853 207.69 378.957C200.509 385.134 180.016 403.536 169.842 405.921C157.148 408.893 122.918 414.422 107.756 418.845C95.4853 422.419 84.4477 435.181 80.4059 443.917C73.5813 458.655 71.969 485.328 71.969 508.335H256.021H440.072C440.072 485.33 438.458 458.657 431.637 443.918Z" fill="#F0C7B1"/>
<path d="M364.898 414.985C409.7 421.505 428.554 431.013 434.459 508.338H440.072C440.072 485.332 438.458 458.659 431.637 443.92C427.595 435.185 416.554 422.241 404.287 418.665C389.123 414.242 354.893 408.895 342.201 405.923C332.027 403.537 308.626 383.71 302.367 375.83C308.551 384.488 325.909 404.552 341.117 409.806C348.392 412.32 354.451 413.465 364.898 414.985ZM170.926 409.806C186.134 404.553 203.491 384.488 209.676 375.83C203.419 383.708 180.018 403.537 169.842 405.923C157.15 408.895 122.92 414.424 107.756 418.847C95.4891 422.421 84.4478 435.183 80.406 443.918C73.5851 458.657 71.9709 485.33 71.9709 508.336H77.5845C83.4521 431.506 102.385 421.495 147.145 414.984C157.59 413.465 163.651 412.32 170.926 409.806Z" fill="#FFE4D6"/>
<path d="M248.007 439.947C248.007 439.947 238.668 436.985 234.971 435.568C215.739 428.189 153.261 423.408 153.261 423.408C153.261 423.408 219.067 426.019 233.588 428.522C232.745 419.749 228.036 391.705 228.036 391.705C228.036 391.705 237.512 422.653 239.831 430.461C241.072 434.635 248.007 439.947 248.007 439.947ZM267.883 437.477C267.719 437.611 267.531 437.786 267.327 437.97C267.535 437.813 267.723 437.65 267.883 437.477ZM248.007 439.947C248.007 439.947 253.332 445.453 256.008 445.523C259.523 445.617 264.892 440.188 267.327 437.97C264.999 439.731 259.674 440.53 257.556 440.613C255.108 440.707 248.007 439.947 248.007 439.947ZM286.691 426.108C283.847 426.564 278.619 427.56 278.619 427.56L282.828 400.155C281.639 405.807 274.593 429.991 267.883 437.477C271.398 434.502 279.217 433.076 283.203 432.5C302.043 429.768 302.035 429.77 358.778 423.408C358.778 423.408 305.273 423.122 286.691 426.108Z" fill="#E1AC8F"/>
<path d="M431.637 443.918C427.595 435.183 416.554 422.239 404.287 418.663C389.123 414.24 354.893 408.893 342.201 405.921C332.027 403.536 311.534 385.134 304.353 378.957C303.064 377.853 302.01 375.573 301.984 373.878C301.728 353.882 309.705 300.765 309.705 300.765H256.021H202.338C202.338 300.765 210.315 353.88 210.056 373.878C210.035 375.573 208.975 377.853 207.69 378.957C200.509 385.134 180.016 403.536 169.842 405.921C157.148 408.893 122.918 414.422 107.756 418.845C95.4853 422.419 84.4477 435.181 80.4059 443.917C73.5813 458.655 71.969 485.328 71.969 508.335H256.021H440.072C440.072 485.33 438.458 458.657 431.637 443.918Z" stroke="#C27B55" stroke-width="2.76077"/>
<path d="M211.116 375.821C224.231 385.58 239.638 392.546 256.026 392.546C272.41 392.546 287.81 385.587 300.924 375.834C300.732 375.175 300.611 374.513 300.601 373.896C300.44 361.266 303.475 335.969 305.792 318.635C276.98 315.009 235.059 315.009 206.249 318.635C208.568 335.97 211.601 361.266 211.438 373.894C211.43 374.503 211.309 375.16 211.116 375.821Z" fill="url(#paint0_linear_2032_235)"/>
<path d="M436.019 447.172C416.734 409.85 379.602 415.14 344.052 405.13C343.191 411.728 319.664 442.821 314.076 460.457C310.938 457.838 307.192 454.338 304.489 451.133C291.259 435.594 271.652 385.316 265.072 424.578C266.502 406.953 274.28 403.07 285.08 417.844C296.69 433.742 297.121 441.951 313.686 459.239C316.612 447.09 322.947 438.516 330.317 427.759C337.449 417.336 342.657 412.635 343.419 403.357C340.76 398.925 341.396 396.941 337.099 394.07C310.126 375.827 329.383 357.315 304.934 352.907C304.743 355.112 304.501 357.582 304.299 359.439C309.528 362.13 311.092 372.602 303.042 380.27C290.248 394.315 269.692 395.012 264.332 416.57L264.319 416.568C262.613 422.968 261.247 432.763 260.6 438.505L256.081 484.331L251.535 439.317C247.849 405.527 243.03 402.222 227.272 391.78C216.83 384.86 199.769 374.419 205.338 362.614C205.973 361.248 206.746 360.409 207.705 359.777C207.429 357.079 207.267 355.515 207.054 353.008C186.869 353.868 189.972 382.423 174.686 392.929C170.679 395.682 168.636 398.228 167.199 402.369C168.176 413.929 193.894 440.055 198.387 459.239C215.108 441.585 215.236 433.871 226.915 417.903C236.973 404.163 245.187 405.573 246.915 424.166C245.966 418.58 243.717 410.029 238.843 410.029C234.827 410.029 230.642 415.952 228.571 418.81C216.978 434.782 215.115 446.206 197.932 460.466C196.743 456.894 195.348 453.305 193.684 449.965C186.874 436.208 168.434 408.452 166.338 405.761C158.188 408.054 145.766 410.594 138.301 411.835C89.52 419.953 70.6106 435.704 63.4197 509.439C242.321 507.628 315.222 508.416 448.474 508.416C446.808 492.009 443.534 461.738 436.019 447.172Z" fill="#1A36B4"/>
<path d="M329.584 427.363C323.214 436.665 318.171 444.48 315.029 454.273C318.65 434.066 341.599 414.934 339.114 402.851C338.051 397.675 319.741 386.137 318.793 368.985C323.845 384.7 342.705 395.916 342.736 403.445C342.786 415.766 342.418 408.612 329.584 427.363ZM448.329 506.956C448.967 490.977 443.595 459.868 436.936 446.959C417.651 409.637 378.844 414.398 343.296 404.388C342.981 404.789 344.198 407.443 343.346 408.584C426.443 423.897 435.905 442.15 448.329 506.956ZM174.692 392.931C184.901 384.47 187.962 376.274 190.305 368.984C185.059 398.947 177.217 387.615 171.495 402.621C168.222 411.203 193.587 434.651 197.015 454.271C192.521 446.587 187.702 437.131 181.332 427.829C176.374 420.583 173.216 413.957 168.303 408.38C165.962 396.024 170.797 396.159 174.692 392.931ZM168.302 408.382C167.449 407.241 166.656 406.166 166.341 405.765C130.794 415.773 95.3086 409.637 76.0255 446.961C69.3647 459.87 66.0389 486.28 64.2039 502.294C67.7542 482.834 73.0457 458.319 84.3814 443.528C103.604 417.454 139.074 412.422 168.302 408.382Z" fill="#1A36B4"/>
<path d="M292.551 391.674C283.601 396.864 276.021 401.958 270.993 409.123C283.08 409.79 292.014 431.392 294.43 434.329C271.731 402.735 263.141 424.206 260.381 444.327C261.176 437.801 261.829 426.665 263.118 421.886C263.493 419.984 263.896 418.166 264.321 416.568L264.334 416.57C269.694 395.012 290.25 394.315 303.044 380.27C311.094 372.602 309.528 362.13 304.301 359.439C304.502 357.582 304.744 355.112 304.936 352.907C306.278 353.152 307.474 353.444 308.584 353.77C325.073 368.275 303.8 386.64 292.551 391.674ZM217.305 391.674C226.257 396.864 237.205 403.015 242.218 409.558C233.388 407.951 223.572 421.142 218.664 432.798C239.829 405.803 246.271 421.142 253.02 444.329C252.227 437.804 250.215 426.667 248.927 421.887C248.552 419.986 248.15 418.168 247.723 416.57L247.712 416.572C242.353 395.014 222.53 394.317 209.737 380.272C201.687 372.604 203.071 362.131 208.3 359.441C208.099 357.583 207.858 355.114 207.666 352.909C206.325 353.153 205.128 353.446 204.019 353.772C190.2 370.646 207.195 385.541 217.305 391.674Z" fill="#20405A"/>
<path d="M303.646 376.822C303.703 366.33 303.353 372.151 304.415 360.276C308.508 362.472 309.029 371.485 303.646 376.822ZM208.423 375.83C204.147 370.235 203.619 364.52 207.784 360.204C208.782 369.514 208.276 368.391 208.423 375.83Z" fill="#13324A"/>
<path d="M343.673 401.839C343.294 395.32 329.293 389.883 323.082 375.749C318.633 365.682 322.855 354.153 304.557 352.299C303.554 358.165 302.665 371.06 302.932 377.292C293.659 387.273 279.316 389.855 270.198 400.587C260.465 412.043 256.247 436.845 256.087 488.319L258.354 486.845C258.354 486.845 260.879 438.099 260.898 437.955C266.574 389.316 284.618 400.804 303.191 380.415C311.512 372.442 309.524 361.877 304.52 359.317C304.737 357.256 304.94 355.215 305.118 353.152C320.858 356.043 316.362 365.308 321.285 376.624C327.83 391.668 340.237 394.953 341.038 402.249C342.308 413.809 335.409 418.716 328.491 428.815C317.608 444.568 315.092 452.604 313.581 458.83C297.062 441.482 297.053 433.877 285.241 417.717C272.644 400.479 264.371 408.562 260.898 437.955C261.255 433.124 267.837 406.344 275.701 410.99C284.791 416.287 293.722 438.796 304.341 451.271C307.174 454.627 310.822 457.993 314.179 460.809C320.45 438.912 343.627 415.781 344.378 405.216C380.627 415.442 442.733 404.949 448.259 508.217C372.544 508.622 290.315 506.962 63.6461 509.236C66.9314 475.303 72.488 442.043 92.5846 427.052C101.207 420.597 111.205 417.222 121.503 415.074C135.853 412.1 151.912 410.187 166.141 406.337C167.591 408.177 192.285 445.352 197.842 460.811C217.835 445.161 225.831 415.794 236.839 410.723C244.503 407.202 250.751 432.695 251.108 437.508C248.108 406.42 238.317 396.247 219.775 428.447C210.639 444.32 208.217 448.623 198.499 458.834C194.597 442.28 167.403 411.065 168.585 402.4C169.752 393.849 180.206 396.21 187.17 378.024C191.076 367.828 190.211 356.586 206.879 353.26C207.059 355.408 207.278 357.53 207.497 359.676C202.935 362.678 201.775 372.764 209.065 379.815C215.63 387.334 227.478 391.624 235.302 397.624C244.525 404.741 248.173 412.03 251.108 437.508C251.173 438.064 253.63 487.095 253.63 487.095L256.083 488.323C254.855 437.096 249.945 406.295 240.032 397.663C231.47 390.024 216.519 385.154 209.264 376.627C209.485 370.23 208.224 357.269 207.436 352.386C190.855 354.075 190.386 364.603 186.83 373.795C177.324 398.367 168.178 391.329 166.663 401.511C166.522 402.463 166.741 403.179 166.971 404.445C153.02 407.294 135.608 409.162 121.619 411.72C100.742 415.532 81.0445 426.551 72.0628 447.522C65.24 463.437 63.2633 491.788 62.7627 509.259C62.7424 509.384 62.7424 509.529 62.7424 509.654C63.0222 509.676 63.3204 509.676 63.6001 509.676C303.741 512.229 447.254 508.613 449.251 508.613C449.954 410.403 396.271 414.698 343.673 401.839ZM303.83 376.272C303.859 370.874 304.023 364.623 304.415 360.276C307.356 362.374 309.64 369.348 303.83 376.272ZM208.329 375.479C203.448 369.09 205.384 362.897 207.6 360.755C208.062 365.073 208.244 371.119 208.329 375.479Z" fill="#1A36B4"/>
<path d="M158.874 226.235C157.095 221.658 143.999 215.188 138.242 216.21C131.73 217.364 129.338 224.227 130.201 229.312C132.231 241.252 137.556 246.28 139.948 255.606C141.966 263.471 146.267 267.996 148.393 271.339C151.006 275.439 153.417 284.85 153.956 286.223C154.809 288.395 157.827 293.664 163.163 293.394C169.297 293.077 177.049 281.084 177.176 278.421C177.879 263.973 163.503 238.151 158.874 226.235Z" fill="#F0C7B1" stroke="#C27B55" stroke-width="2.76077"/>
<path d="M160.227 274.926C160.227 274.926 161.017 272.955 160.054 271.205C158.817 268.954 155.595 264.822 154.862 262.35C154.264 260.329 154.568 256.009 154.47 253.896C154.297 250.16 151.724 247.602 150.923 245.458C145.56 231.114 138.423 222.225 134.359 220.379C131.353 227.72 133.735 233.091 137.929 244.388C135.399 229.035 137.83 224.235 137.83 224.235C137.83 224.235 145.225 230.612 148.875 244.797C149.536 247.357 146.83 252.7 147.347 255.297C147.995 258.558 155.048 264.869 157.023 267.509C158.563 269.565 160.227 274.926 160.227 274.926Z" fill="#C27B55"/>
<path d="M352.684 226.235C354.464 221.658 367.559 215.188 373.318 216.21C379.832 217.364 382.223 224.227 381.36 229.312C379.328 241.252 374.005 246.28 371.61 255.606C369.593 263.471 365.29 267.996 363.166 271.339C360.553 275.439 358.141 284.85 357.602 286.223C356.75 288.395 353.73 293.664 348.396 293.394C342.263 293.077 334.509 281.084 334.384 278.421C333.677 263.973 348.057 238.151 352.684 226.235Z" fill="#F0C7B1" stroke="#C27B55" stroke-width="2.76077"/>
<path d="M351.331 274.926C351.331 274.926 350.54 272.955 351.504 271.205C352.741 268.954 355.966 264.822 356.695 262.35C357.291 260.329 356.989 256.009 357.09 253.896C357.263 250.16 359.833 247.602 360.635 245.458C365.999 231.114 373.138 222.225 377.2 220.379C380.205 227.72 377.822 233.091 373.631 244.388C376.162 229.035 373.729 224.235 373.729 224.235C373.729 224.235 366.334 230.612 362.682 244.797C362.025 247.357 364.727 252.7 364.21 255.297C363.562 258.558 356.509 264.869 354.536 267.509C352.995 269.565 351.331 274.926 351.331 274.926Z" fill="#C27B55"/>
<path d="M256.024 77.8196C194.144 77.7202 144.091 128.39 143.995 191.009C143.981 200.954 145.227 210.602 147.59 219.797H147.597C147.618 219.896 163.634 292.021 174.32 313.985C185.497 336.968 218.15 374.143 256.024 374.143C293.905 374.143 326.553 336.97 337.728 313.985C348.412 292.019 364.429 219.895 364.451 219.797H364.46C366.821 210.6 368.069 200.954 368.052 191.009C367.959 128.39 317.904 77.7202 256.024 77.8196Z" fill="#F0C7B1"/>
<path d="M294.218 84.5283C333.681 101.993 361.233 141.833 361.305 188.265C361.32 198.21 360.074 207.858 357.711 217.053H357.701C357.681 217.152 341.665 289.275 330.979 311.245C320.472 332.849 291.209 371.005 256.024 371.005C220.839 371.005 191.577 332.851 181.069 311.245C170.383 289.275 154.369 217.152 154.347 217.053H154.339C151.976 207.856 150.728 198.21 150.745 188.265C150.815 141.831 178.367 101.993 217.831 84.5283C174.789 100.265 144.071 141.967 143.995 191.01C143.981 200.954 145.227 210.602 147.59 219.797H147.597C147.618 219.896 163.634 292.021 174.32 313.985C185.497 336.968 218.15 374.143 256.024 374.143C293.9 374.143 326.551 336.97 337.728 313.985C348.412 292.019 364.429 219.895 364.451 219.797H364.46C366.821 210.6 368.069 200.954 368.052 191.01C367.979 141.967 337.261 100.265 294.218 84.5283Z" fill="#E8B9A0"/>
<path d="M256.024 77.8196C194.144 77.7202 144.091 128.39 143.995 191.009C143.981 200.954 145.227 210.602 147.59 219.797H147.597C147.618 219.896 163.634 292.021 174.32 313.985C185.497 336.968 218.15 374.143 256.024 374.143C293.905 374.143 326.553 336.97 337.728 313.985C348.412 292.019 364.429 219.895 364.451 219.797H364.46C366.821 210.6 368.069 200.954 368.052 191.009C367.959 128.39 317.904 77.7202 256.024 77.8196Z" stroke="#C27B55" stroke-width="2.76077"/>
<path d="M256.389 339.32C251.176 339.585 249.682 334.253 249.682 334.253C249.682 334.253 256.917 335.293 262.549 333.604C262.549 333.604 260.975 339.09 256.389 339.32Z" fill="url(#paint1_linear_2032_235)"/>
<path d="M256.919 335.295C253.267 335.479 249.989 335.153 249.783 335.131C249.529 335.105 249.345 334.881 249.371 334.631C249.398 334.377 249.634 334.202 249.875 334.218C249.951 334.224 257.414 334.964 262.277 333.598C262.518 333.539 262.775 333.673 262.845 333.918C262.915 334.163 262.772 334.415 262.527 334.485C260.808 334.967 258.813 335.199 256.919 335.295Z" fill="#C27B55"/>
<path d="M223.812 316.041C223.812 316.041 246.877 318.776 254.581 318.8C262.961 318.822 290.07 316.041 290.07 316.041C282.233 322.546 273.61 328.8 254.079 328.923C236.609 329.035 232.132 322.691 223.812 316.041Z" fill="white"/>
<path d="M223.812 316.041C223.812 316.041 246.877 318.776 254.581 318.8C262.961 318.822 290.07 316.041 290.07 316.041C282.233 322.546 273.61 328.8 254.079 328.923C236.609 329.035 232.132 322.691 223.812 316.041Z" stroke="#C27B55" stroke-width="1.38039"/>
<path d="M224.862 240.26C218.801 238.817 215.717 242.209 206.809 242.406C191.98 242.732 188.518 241.268 186.197 237.551C185.234 236.01 184.314 234.002 183.87 232.763L183.686 225.127C186.13 217.859 219.652 217.117 231.356 228.411C231.884 229.636 232.153 230.779 232.211 231.847C231.862 233.61 231.269 235.303 230.468 236.906C229.169 238.397 227.226 239.531 224.862 240.26Z" fill="url(#paint2_radial_2032_235)"/>
<path d="M219.67 231.287C219.67 237.385 214.725 242.33 208.627 242.33C202.529 242.33 197.584 237.385 197.584 231.287C197.584 225.188 202.529 220.244 208.627 220.244C214.725 220.242 219.67 225.188 219.67 231.287Z" fill="#7B5C33"/>
<path opacity="0.7" d="M207.39 220.366C207.348 220.371 207.304 220.377 207.26 220.382C207.313 220.631 207.365 220.881 207.416 221.13C207.405 220.877 207.4 220.62 207.39 220.366ZM207.414 221.128C207.543 224.757 207.755 227.991 208.366 229.16C208.688 227.879 208.139 224.687 207.414 221.128ZM208.368 229.162C208.288 229.469 208.169 229.679 207.985 229.749C207.801 229.819 207.569 229.738 207.307 229.559C207.383 229.866 207.376 230.106 207.241 230.255C207.109 230.404 206.871 230.441 206.555 230.398C206.763 230.638 206.869 230.857 206.823 231.048C206.774 231.239 206.577 231.383 206.284 231.493C206.577 231.609 206.774 231.753 206.82 231.944C206.866 232.136 206.759 232.355 206.553 232.592C206.866 232.554 207.107 232.594 207.236 232.743C207.366 232.892 207.374 233.133 207.3 233.441C207.56 233.262 207.788 233.185 207.972 233.257C208.158 233.327 208.277 233.536 208.351 233.846C208.5 233.566 208.666 233.387 208.866 233.367C209.058 233.341 209.264 233.476 209.472 233.713C209.474 233.397 209.54 233.163 209.706 233.051C209.868 232.938 210.109 232.96 210.403 233.074C210.26 232.795 210.21 232.557 210.302 232.381C210.394 232.206 210.62 232.112 210.935 232.075C210.676 231.893 210.517 231.707 210.521 231.508C210.521 231.309 210.676 231.124 210.939 230.945C210.626 230.906 210.403 230.812 210.309 230.638C210.219 230.463 210.269 230.224 210.416 229.944C210.118 230.054 209.879 230.076 209.717 229.964C209.553 229.852 209.487 229.618 209.487 229.301C209.281 229.537 209.074 229.668 208.879 229.642C208.681 229.616 208.513 229.443 208.368 229.162ZM209.485 229.3C210.366 228.315 211.364 225.234 212.374 221.746C210.803 225.017 209.487 227.978 209.485 229.3ZM212.374 221.746C212.485 221.522 212.595 221.293 212.7 221.065C212.662 221.052 212.623 221.034 212.584 221.017C212.514 221.262 212.446 221.507 212.374 221.746ZM210.416 229.944C211.653 229.48 213.97 227.214 216.484 224.597C213.574 226.762 211.031 228.773 210.416 229.944ZM216.484 224.597C216.668 224.459 216.858 224.321 217.046 224.183C217.02 224.15 216.99 224.122 216.968 224.093C216.808 224.258 216.648 224.43 216.484 224.597ZM210.935 230.945C212.247 231.107 215.352 230.178 218.798 229.029C215.213 229.596 212.028 230.194 210.935 230.945ZM218.798 229.029C219 229 219.212 228.968 219.418 228.935C219.411 228.9 219.402 228.865 219.392 228.83C219.195 228.897 218.993 228.963 218.798 229.029ZM210.933 232.073C212.019 232.832 215.2 233.448 218.778 234.03C215.345 232.865 212.247 231.917 210.933 232.073ZM218.778 234.03C218.952 234.09 219.131 234.153 219.304 234.21C219.313 234.179 219.321 234.149 219.326 234.118C219.148 234.09 218.96 234.061 218.778 234.03ZM210.403 233.074C211.016 234.247 213.547 236.271 216.444 238.454C213.943 235.822 211.642 233.546 210.403 233.074ZM216.446 238.451C216.554 238.565 216.667 238.683 216.775 238.798C216.794 238.776 216.81 238.76 216.83 238.74C216.701 238.644 216.569 238.546 216.446 238.451ZM209.474 233.711C209.468 235.035 210.768 238.002 212.321 241.281C211.329 237.79 210.352 234.701 209.474 233.711ZM212.321 241.281C212.36 241.419 212.4 241.563 212.437 241.705C212.465 241.694 212.483 241.686 212.509 241.679C212.448 241.546 212.384 241.408 212.321 241.281ZM208.353 233.844C207.734 235.016 207.504 238.243 207.355 241.87C208.099 238.318 208.668 235.128 208.353 233.844ZM207.355 241.87C207.324 242.008 207.298 242.148 207.269 242.29C207.295 242.295 207.315 242.295 207.341 242.299C207.344 242.157 207.352 242.01 207.355 241.87ZM207.302 233.439C206.205 234.188 204.503 236.943 202.686 240.083C204.994 237.286 206.982 234.724 207.302 233.439ZM202.686 240.083C202.588 240.199 202.487 240.322 202.388 240.438C202.412 240.453 202.432 240.464 202.458 240.483C202.531 240.35 202.611 240.216 202.686 240.083ZM206.557 232.594C205.239 232.747 202.45 234.394 199.382 236.329C202.728 234.926 205.673 233.584 206.557 232.594ZM199.38 236.332C199.222 236.398 199.06 236.465 198.896 236.535C198.907 236.559 198.924 236.584 198.939 236.608C199.088 236.518 199.235 236.424 199.38 236.332ZM206.286 231.495C205.051 231.022 201.815 231.186 198.197 231.475C201.812 231.784 205.047 231.963 206.286 231.495ZM198.197 231.475C198 231.457 197.798 231.438 197.602 231.422C197.602 231.457 197.599 231.492 197.602 231.525C197.803 231.506 198.004 231.49 198.197 231.475ZM206.557 230.402C205.686 229.41 202.749 228.052 199.414 226.627C202.467 228.578 205.246 230.242 206.557 230.402ZM199.414 226.627C199.222 226.504 199.029 226.381 198.834 226.257C198.817 226.292 198.799 226.327 198.78 226.358C198.994 226.449 199.207 226.537 199.414 226.627ZM207.307 229.559C206.996 228.274 205.025 225.705 202.736 222.891C204.532 226.042 206.218 228.804 207.307 229.559ZM202.736 222.891C202.612 222.679 202.493 222.464 202.369 222.249C202.334 222.272 202.298 222.296 202.266 222.32C202.421 222.51 202.583 222.701 202.736 222.891Z" fill="url(#paint3_radial_2032_235)"/>
<path opacity="0.4" d="M210.258 220.403C210.214 220.397 210.171 220.39 210.129 220.384C210.116 220.638 210.1 220.894 210.085 221.146C210.14 220.9 210.201 220.649 210.258 220.403ZM210.083 221.144C209.269 224.682 208.634 227.86 208.925 229.151C209.568 227.995 209.862 224.77 210.083 221.144ZM208.925 229.151C208.771 229.427 208.599 229.598 208.403 229.618C208.207 229.636 208.005 229.5 207.801 229.259C207.793 229.574 207.723 229.806 207.556 229.914C207.39 230.023 207.149 229.997 206.857 229.876C206.996 230.161 207.042 230.4 206.947 230.571C206.849 230.744 206.623 230.833 206.312 230.862C206.564 231.048 206.717 231.238 206.711 231.436C206.707 231.633 206.547 231.817 206.286 231.992C206.597 232.036 206.82 232.138 206.906 232.313C206.995 232.489 206.939 232.727 206.788 233.003C207.085 232.898 207.326 232.883 207.486 232.999C207.646 233.115 207.707 233.349 207.699 233.667C207.915 233.437 208.121 233.306 208.32 233.338C208.513 233.363 208.677 233.546 208.817 233.831C208.899 233.524 209.025 233.317 209.214 233.251C209.4 233.185 209.628 233.27 209.882 233.456C209.816 233.148 209.829 232.905 209.963 232.76C210.098 232.614 210.341 232.583 210.655 232.627C210.451 232.384 210.346 232.165 210.401 231.974C210.453 231.782 210.652 231.643 210.952 231.538C210.657 231.42 210.468 231.271 210.422 231.078C210.379 230.884 210.49 230.667 210.705 230.435C210.388 230.465 210.151 230.424 210.024 230.273C209.895 230.122 209.892 229.879 209.973 229.576C209.711 229.749 209.479 229.822 209.297 229.747C209.107 229.671 208.995 229.46 208.925 229.151ZM209.969 229.576C211.075 228.851 212.835 226.132 214.714 223.027C212.349 225.779 210.313 228.297 209.969 229.576ZM214.714 223.027C214.877 222.839 215.045 222.646 215.207 222.453C215.172 222.429 215.141 222.401 215.106 222.376C214.975 222.595 214.844 222.815 214.714 223.027ZM210.701 230.437C212.017 230.308 214.843 228.718 217.947 226.843C214.574 228.181 211.598 229.465 210.701 230.437ZM217.946 226.841C218.161 226.756 218.378 226.671 218.597 226.587C218.579 226.548 218.559 226.513 218.546 226.478C218.347 226.6 218.148 226.723 217.946 226.841ZM210.944 231.54C212.17 232.036 215.409 231.941 219.033 231.725C215.424 231.343 212.194 231.096 210.944 231.54ZM219.033 231.725C219.24 231.749 219.449 231.77 219.657 231.792C219.657 231.755 219.659 231.72 219.661 231.685C219.451 231.698 219.24 231.713 219.033 231.725ZM210.652 232.629C211.502 233.643 214.417 235.06 217.723 236.548C214.706 234.532 211.96 232.817 210.652 232.629ZM217.723 236.548C217.876 236.652 218.028 236.757 218.181 236.857C218.198 236.829 218.213 236.802 218.227 236.774C218.062 236.702 217.89 236.625 217.723 236.548ZM209.879 233.457C210.166 234.748 212.087 237.359 214.322 240.219C212.586 237.028 210.954 234.23 209.879 233.457ZM214.322 240.214C214.399 240.352 214.474 240.495 214.552 240.635C214.574 240.619 214.596 240.606 214.62 240.591C214.52 240.466 214.419 240.337 214.322 240.214ZM208.817 233.831C208.471 235.106 208.957 238.311 209.608 241.881C209.551 238.252 209.407 235.014 208.817 233.831ZM209.608 241.881C209.61 242.025 209.612 242.172 209.612 242.319C209.638 242.316 209.661 242.312 209.687 242.312C209.661 242.17 209.636 242.023 209.608 241.881ZM207.699 233.667C206.798 234.639 205.741 237.698 204.659 241.164C206.295 237.926 207.672 234.99 207.699 233.667ZM204.659 241.164C204.595 241.289 204.528 241.418 204.466 241.546C204.488 241.557 204.508 241.563 204.532 241.574C204.572 241.44 204.618 241.298 204.659 241.164ZM206.787 233.006C205.535 233.446 203.175 235.668 200.608 238.23C203.566 236.124 206.146 234.164 206.787 233.006ZM200.608 238.23C200.485 238.316 200.358 238.41 200.233 238.497C200.251 238.517 200.269 238.533 200.286 238.556C200.391 238.447 200.499 238.34 200.608 238.23ZM206.286 231.996C204.974 231.805 201.856 232.673 198.388 233.748C201.987 233.259 205.176 232.725 206.286 231.996ZM198.388 233.752C198.219 233.776 198.044 233.796 197.867 233.824C197.873 233.851 197.882 233.879 197.891 233.905C198.059 233.857 198.224 233.802 198.388 233.752ZM206.31 230.868C205.239 230.089 202.071 229.41 198.502 228.753C201.915 229.988 204.992 230.998 206.31 230.868ZM198.502 228.753C198.317 228.685 198.125 228.615 197.941 228.547C197.932 228.582 197.921 228.615 197.913 228.646C198.114 228.681 198.311 228.718 198.502 228.753ZM206.857 229.879C206.271 228.696 203.787 226.624 200.932 224.384C203.376 227.062 205.631 229.388 206.857 229.879ZM200.93 224.385C200.777 224.218 200.623 224.049 200.468 223.879C200.442 223.909 200.415 223.936 200.391 223.964C200.573 224.104 200.755 224.244 200.93 224.385ZM207.801 229.259C207.832 227.938 206.593 224.947 205.106 221.638C206.026 225.146 206.943 228.249 207.801 229.259ZM205.106 221.638C205.044 221.402 204.983 221.161 204.92 220.922C204.882 220.934 204.841 220.949 204.804 220.964C204.904 221.188 205.007 221.415 205.106 221.638Z" fill="url(#paint4_radial_2032_235)"/>
<path d="M212.96 231.287C212.96 233.68 211.022 235.618 208.629 235.618C206.238 235.618 204.296 233.68 204.296 231.287C204.296 228.897 206.238 226.955 208.629 226.955C211.022 226.955 212.96 228.895 212.96 231.287Z" fill="#7B5C33"/>
<path opacity="0.9" d="M212.96 231.287C212.96 233.68 211.022 235.618 208.629 235.618C206.238 235.618 204.296 233.68 204.296 231.287C204.296 228.897 206.238 226.955 208.629 226.955C211.022 226.955 212.96 228.895 212.96 231.287Z" fill="black"/>
<path opacity="0.5" d="M202.585 236.345C203.411 235.789 204.534 236.014 205.088 236.838C205.642 237.665 205.423 238.788 204.595 239.342C203.766 239.899 202.645 239.678 202.091 238.85C201.537 238.024 201.758 236.899 202.585 236.345Z" fill="url(#paint5_linear_2032_235)"/>
<path opacity="0.5" d="M212.05 230.684C211.588 231.372 210.267 231.293 209.094 230.507C207.92 229.721 207.346 228.523 207.806 227.836C208.266 227.148 209.59 227.225 210.76 228.013C211.936 228.797 212.51 229.993 212.05 230.684Z" fill="url(#paint6_linear_2032_235)"/>
<path opacity="0.75" d="M217.307 228.845C216.262 230.452 213.56 230.547 211.279 229.06C208.997 227.573 207.996 225.066 209.043 223.46C210.088 221.855 212.79 221.759 215.071 223.244C217.351 224.733 218.352 227.242 217.307 228.845Z" fill="url(#paint7_linear_2032_235)"/>
<path d="M170.858 231.008C170.155 237.089 188.994 271.506 207.799 271.506C226.603 271.506 243.689 261.766 243.689 231.009C243.689 198.268 226.603 190.516 207.799 190.516C188.994 190.516 174.349 200.834 170.858 231.008ZM183.872 232.765L183.688 225.129C186.132 217.861 219.654 217.119 231.358 228.412C233.927 234.359 230.605 238.493 224.862 240.262C218.802 238.819 215.717 242.211 206.809 242.408C191.98 242.734 188.518 241.27 186.197 237.552C185.234 236.01 184.314 234.004 183.872 232.765Z" fill="#F0C7B1"/>
<path d="M181.844 227.905C181.886 241.771 195.917 252.943 213.203 252.873C230.483 252.794 244.464 241.5 244.42 227.634C244.377 213.769 230.345 202.594 213.057 202.666C195.771 202.746 181.798 214.038 181.844 227.905ZM183.872 232.765L183.688 225.129C186.133 217.861 219.654 217.119 231.358 228.412C233.927 234.359 230.605 238.493 224.862 240.262C218.802 238.819 215.717 242.211 206.809 242.408C191.98 242.734 188.518 241.27 186.197 237.552C185.234 236.01 184.314 234.004 183.872 232.765Z" fill="url(#paint8_radial_2032_235)"/>
<path d="M186.197 237.552C185.234 236.012 184.314 234.004 183.87 232.765L183.686 225.129C186.13 217.861 219.652 217.119 231.356 228.412C233.925 234.359 230.603 238.493 224.86 240.262C218.8 238.819 215.715 242.211 206.807 242.408C191.981 242.733 188.518 241.268 186.197 237.552Z" fill="url(#paint9_radial_2032_235)"/>
<path d="M236.631 225.661C218.93 215.058 205.892 214.382 184.881 215.733C202.419 212.971 222.619 214.975 236.631 225.661Z" fill="#C27B55"/>
<path d="M234.358 233.189C228.394 217.885 186.609 217.794 183.87 225.493V232.662C181.991 229.83 181.943 229.657 181.141 226.397L177.101 227.77C177.101 227.77 182.155 220.642 186.854 219.707C227.688 211.574 234.008 230.733 234.358 233.189ZM227.94 240.803C219.427 237.159 217.007 241.498 206.658 241.714C191.926 242.023 189.05 240.304 186.182 237.157C187.679 241.005 188.713 242.835 206.198 242.728C216.092 242.667 221.498 238.579 227.94 240.803Z" fill="#582311"/>
<path d="M286.442 240.26C292.503 238.817 295.588 242.209 304.496 242.406C319.325 242.732 322.787 241.268 325.108 237.551C326.071 236.01 326.991 234.002 327.434 232.763L327.618 225.127C325.174 217.859 291.653 217.117 279.949 228.411C279.421 229.636 279.152 230.779 279.093 231.847C279.443 233.61 280.036 235.303 280.836 236.906C282.136 238.397 284.079 239.531 286.442 240.26Z" fill="url(#paint10_radial_2032_235)"/>
<path d="M314.457 231.287C314.457 237.385 309.511 242.33 303.416 242.33C297.318 242.33 292.371 237.385 292.371 231.287C292.371 225.188 297.318 220.244 303.416 220.244C309.511 220.242 314.457 225.188 314.457 231.287Z" fill="#7B5C33"/>
<path opacity="0.7" d="M302.177 220.366C302.135 220.371 302.09 220.377 302.046 220.382C302.1 220.631 302.153 220.881 302.203 221.13C302.192 220.877 302.186 220.62 302.177 220.366ZM302.201 221.128C302.328 224.757 302.541 227.991 303.154 229.16C303.474 227.879 302.926 224.687 302.201 221.128ZM303.152 229.162C303.075 229.469 302.954 229.679 302.771 229.749C302.585 229.819 302.355 229.738 302.096 229.559C302.17 229.866 302.162 230.106 302.03 230.255C301.897 230.404 301.66 230.441 301.345 230.398C301.551 230.638 301.66 230.857 301.614 231.048C301.562 231.239 301.367 231.383 301.074 231.493C301.365 231.609 301.562 231.753 301.608 231.944C301.654 232.136 301.549 232.355 301.341 232.592C301.654 232.554 301.893 232.594 302.022 232.743C302.153 232.892 302.16 233.133 302.087 233.441C302.346 233.262 302.576 233.185 302.758 233.257C302.946 233.327 303.064 233.536 303.138 233.846C303.285 233.566 303.454 233.387 303.651 233.367C303.844 233.341 304.051 233.476 304.257 233.713C304.26 233.397 304.325 233.163 304.492 233.051C304.652 232.938 304.895 232.96 305.19 233.074C305.046 232.795 304.998 232.557 305.087 232.381C305.181 232.206 305.407 232.112 305.722 232.075C305.462 231.893 305.302 231.707 305.308 231.508C305.306 231.309 305.462 231.124 305.725 230.945C305.411 230.906 305.19 230.812 305.096 230.638C305.004 230.463 305.055 230.224 305.201 229.944C304.905 230.054 304.665 230.076 304.501 229.964C304.338 229.852 304.273 229.618 304.271 229.301C304.067 229.537 303.859 229.668 303.664 229.642C303.467 229.616 303.3 229.443 303.152 229.162ZM304.271 229.301C305.153 228.317 306.151 225.234 307.159 221.746C305.589 225.017 304.275 227.98 304.271 229.301ZM307.159 221.746C307.27 221.522 307.382 221.293 307.489 221.065C307.45 221.052 307.411 221.034 307.373 221.017C307.301 221.262 307.231 221.507 307.159 221.746ZM305.201 229.944C306.44 229.48 308.759 227.214 311.273 224.597C308.361 226.762 305.817 228.773 305.201 229.944ZM311.273 224.597C311.457 224.459 311.644 224.321 311.834 224.183C311.806 224.15 311.779 224.122 311.757 224.093C311.595 224.258 311.435 224.43 311.273 224.597ZM305.725 230.945C307.038 231.107 310.139 230.178 313.584 229.029C309.999 229.596 306.817 230.194 305.725 230.945ZM313.584 229.029C313.787 229 313.999 228.968 314.205 228.935C314.195 228.9 314.188 228.865 314.179 228.83C313.982 228.897 313.779 228.963 313.584 229.029ZM305.72 232.073C306.808 232.832 309.986 233.448 313.566 234.03C310.132 232.865 307.034 231.917 305.72 232.073ZM313.566 234.03C313.741 234.09 313.916 234.153 314.091 234.21C314.1 234.179 314.107 234.149 314.114 234.118C313.934 234.09 313.746 234.061 313.566 234.03ZM305.19 233.074C305.801 234.247 308.333 236.271 311.23 238.454C308.731 235.822 306.428 233.546 305.19 233.074ZM311.232 238.451C311.341 238.565 311.451 238.683 311.56 238.798C311.578 238.776 311.597 238.76 311.617 238.74C311.488 238.644 311.356 238.546 311.232 238.451ZM304.262 233.711C304.257 235.035 305.554 238.002 307.109 241.281C306.116 237.79 305.138 234.701 304.262 233.711ZM307.109 241.281C307.148 241.419 307.189 241.563 307.225 241.705C307.253 241.694 307.273 241.686 307.297 241.679C307.235 241.546 307.17 241.408 307.109 241.281ZM303.139 233.844C302.521 235.016 302.291 238.243 302.142 241.87C302.885 238.318 303.454 235.128 303.139 233.844ZM302.142 241.87C302.111 242.008 302.085 242.148 302.055 242.29C302.081 242.295 302.1 242.295 302.127 242.299C302.131 242.157 302.138 242.01 302.142 241.87ZM302.087 233.441C300.99 234.19 299.287 236.943 297.471 240.083C299.781 237.286 301.766 234.725 302.087 233.441ZM297.471 240.083C297.375 240.199 297.274 240.322 297.174 240.438C297.198 240.453 297.219 240.464 297.242 240.483C297.318 240.35 297.397 240.216 297.471 240.083ZM301.341 232.592C300.023 232.745 297.237 234.394 294.169 236.329C297.515 234.926 300.46 233.582 301.341 232.592ZM294.169 236.332C294.009 236.398 293.847 236.465 293.685 236.535C293.696 236.559 293.711 236.584 293.727 236.608C293.874 236.518 294.022 236.424 294.169 236.332ZM301.074 231.493C299.838 231.02 296.602 231.186 292.984 231.475C296.6 231.784 299.834 231.961 301.074 231.493ZM292.984 231.475C292.788 231.457 292.584 231.438 292.391 231.422C292.389 231.457 292.385 231.492 292.389 231.525C292.59 231.506 292.79 231.49 292.984 231.475ZM301.345 230.402C300.473 229.41 297.537 228.052 294.2 226.627C297.254 228.578 300.033 230.242 301.345 230.402ZM294.2 226.627C294.009 226.504 293.814 226.381 293.62 226.257C293.604 226.292 293.585 226.327 293.569 226.358C293.78 226.449 293.996 226.537 294.2 226.627ZM302.096 229.559C301.785 228.274 299.812 225.705 297.522 222.891C299.319 226.042 301.006 228.804 302.096 229.559ZM297.522 222.891C297.399 222.679 297.277 222.464 297.158 222.249C297.123 222.272 297.086 222.296 297.053 222.32C297.209 222.51 297.369 222.701 297.522 222.891Z" fill="url(#paint11_radial_2032_235)"/>
<path opacity="0.4" d="M305.044 220.403C305 220.397 304.958 220.39 304.915 220.384C304.901 220.638 304.886 220.894 304.871 221.146C304.925 220.9 304.985 220.649 305.044 220.403ZM304.869 221.144C304.054 224.682 303.421 227.86 303.71 229.151C304.354 227.995 304.649 224.77 304.869 221.144ZM303.71 229.151C303.555 229.427 303.384 229.598 303.189 229.618C302.994 229.636 302.791 229.5 302.587 229.259C302.58 229.574 302.51 229.806 302.342 229.914C302.177 230.023 301.936 229.997 301.643 229.876C301.781 230.161 301.829 230.4 301.733 230.571C301.634 230.744 301.409 230.833 301.096 230.862C301.35 231.048 301.501 231.238 301.496 231.436C301.492 231.633 301.332 231.817 301.072 231.992C301.385 232.036 301.604 232.138 301.693 232.313C301.781 232.489 301.726 232.727 301.575 233.003C301.873 232.898 302.114 232.883 302.274 232.999C302.434 233.115 302.495 233.349 302.486 233.667C302.701 233.437 302.907 233.306 303.106 233.338C303.299 233.363 303.463 233.546 303.603 233.831C303.688 233.524 303.811 233.317 304.001 233.251C304.187 233.185 304.417 233.27 304.669 233.456C304.604 233.148 304.617 232.905 304.752 232.76C304.884 232.614 305.127 232.583 305.442 232.627C305.239 232.384 305.133 232.165 305.188 231.974C305.238 231.782 305.438 231.643 305.738 231.538C305.446 231.42 305.254 231.271 305.208 231.078C305.168 230.884 305.278 230.667 305.492 230.435C305.175 230.465 304.936 230.424 304.811 230.273C304.682 230.122 304.678 229.879 304.761 229.576C304.498 229.749 304.266 229.822 304.084 229.747C303.896 229.671 303.778 229.46 303.71 229.151ZM304.755 229.576C305.861 228.851 307.621 226.132 309.5 223.027C307.135 225.779 305.099 228.297 304.755 229.576ZM309.5 223.027C309.664 222.839 309.831 222.646 309.995 222.453C309.958 222.429 309.927 222.401 309.892 222.376C309.762 222.595 309.631 222.815 309.5 223.027ZM305.488 230.437C306.804 230.308 309.627 228.718 312.734 226.843C309.36 228.181 306.384 229.465 305.488 230.437ZM312.732 226.841C312.946 226.756 313.163 226.671 313.384 226.587C313.365 226.548 313.345 226.513 313.332 226.478C313.133 226.6 312.935 226.723 312.732 226.841ZM305.731 231.54C306.957 232.036 310.196 231.941 313.822 231.725C310.209 231.343 306.981 231.096 305.731 231.54ZM313.82 231.724C314.024 231.748 314.236 231.77 314.444 231.792C314.446 231.755 314.446 231.72 314.447 231.685C314.239 231.698 314.026 231.711 313.82 231.724ZM305.438 232.629C306.29 233.643 309.204 235.06 312.509 236.548C309.493 234.532 306.747 232.817 305.438 232.629ZM312.508 236.548C312.658 236.652 312.815 236.757 312.968 236.857C312.984 236.829 313.001 236.802 313.012 236.774C312.848 236.702 312.675 236.625 312.508 236.548ZM304.667 233.457C304.952 234.748 306.874 237.359 309.108 240.219C307.373 237.028 305.742 234.23 304.667 233.457ZM309.11 240.214C309.185 240.352 309.261 240.495 309.338 240.635C309.36 240.619 309.381 240.606 309.406 240.591C309.307 240.466 309.204 240.337 309.11 240.214ZM303.603 233.831C303.257 235.106 303.743 238.311 304.395 241.881C304.338 238.252 304.194 235.014 303.603 233.831ZM304.395 241.881C304.396 242.025 304.398 242.172 304.398 242.319C304.426 242.316 304.446 242.312 304.472 242.312C304.448 242.17 304.422 242.023 304.395 241.881ZM302.484 233.669C301.584 234.641 300.526 237.698 299.444 241.164C301.082 237.926 302.457 234.992 302.484 233.669ZM299.444 241.164C299.379 241.289 299.317 241.418 299.252 241.546C299.274 241.557 299.293 241.563 299.317 241.574C299.359 241.44 299.403 241.298 299.444 241.164ZM301.573 233.006C300.322 233.446 297.964 235.668 295.396 238.23C298.352 236.124 300.933 234.164 301.573 233.006ZM295.396 238.23C295.273 238.316 295.142 238.41 295.019 238.497C295.037 238.517 295.056 238.533 295.072 238.556C295.177 238.447 295.29 238.34 295.396 238.23ZM301.072 231.996C299.76 231.805 296.644 232.673 293.177 233.748C296.773 233.259 299.964 232.725 301.072 231.996ZM293.177 233.752C293.005 233.776 292.831 233.796 292.656 233.824C292.663 233.851 292.67 233.879 292.68 233.905C292.845 233.857 293.011 233.802 293.177 233.752ZM301.096 230.868C300.025 230.089 296.858 229.41 293.289 228.753C296.701 229.988 299.779 230.998 301.096 230.868ZM293.289 228.753C293.103 228.685 292.912 228.615 292.728 228.547C292.717 228.582 292.707 228.615 292.7 228.646C292.899 228.681 293.097 228.718 293.289 228.753ZM301.643 229.879C301.058 228.696 298.571 226.624 295.717 224.384C298.163 227.062 300.417 229.388 301.643 229.879ZM295.717 224.384C295.564 224.216 295.409 224.049 295.255 223.879C295.227 223.909 295.203 223.936 295.175 223.964C295.358 224.104 295.544 224.242 295.717 224.384ZM302.587 229.259C302.618 227.938 301.38 224.947 299.893 221.638C300.815 225.146 301.73 228.249 302.587 229.259ZM299.893 221.638C299.83 221.402 299.769 221.161 299.705 220.922C299.666 220.934 299.626 220.949 299.589 220.964C299.69 221.188 299.793 221.415 299.893 221.638Z" fill="url(#paint12_radial_2032_235)"/>
<path d="M307.746 231.287C307.746 233.68 305.806 235.618 303.416 235.618C301.023 235.618 299.083 233.68 299.083 231.287C299.083 228.897 301.025 226.955 303.416 226.955C305.81 226.955 307.746 228.895 307.746 231.287Z" fill="#7B5C33"/>
<path opacity="0.9" d="M307.746 231.287C307.746 233.68 305.806 235.618 303.416 235.618C301.023 235.618 299.083 233.68 299.083 231.287C299.083 228.897 301.025 226.955 303.416 226.955C305.81 226.955 307.746 228.895 307.746 231.287Z" fill="black"/>
<path opacity="0.5" d="M297.373 236.345C298.198 235.789 299.322 236.014 299.874 236.838C300.43 237.665 300.211 238.788 299.381 239.342C298.553 239.899 297.432 239.678 296.88 238.85C296.324 238.024 296.545 236.899 297.373 236.345Z" fill="url(#paint13_linear_2032_235)"/>
<path opacity="0.5" d="M306.835 230.684C306.373 231.372 305.052 231.293 303.881 230.507C302.707 229.721 302.133 228.523 302.593 227.836L302.595 227.835C303.055 227.146 304.378 227.225 305.549 228.013C306.723 228.797 307.297 229.993 306.835 230.684Z" fill="url(#paint14_linear_2032_235)"/>
<path opacity="0.75" d="M312.095 228.845C311.048 230.452 308.348 230.547 306.066 229.06C303.785 227.573 302.782 225.066 303.83 223.46C304.875 221.855 307.575 221.759 309.857 223.244C312.138 224.733 313.139 227.242 312.095 228.845Z" fill="url(#paint15_linear_2032_235)"/>
<path d="M303.507 190.516C284.703 190.516 267.617 198.268 267.617 231.009C267.617 261.766 284.703 271.506 303.507 271.506C322.312 271.506 340.117 238.318 340.447 231.008C341.82 200.663 322.312 190.516 303.507 190.516ZM325.108 237.552C322.787 241.27 319.323 242.734 304.496 242.408C295.588 242.211 292.503 238.819 286.442 240.262C280.7 238.493 277.378 234.359 279.947 228.412C291.651 217.119 325.172 217.861 327.616 225.129L327.432 232.765C326.992 234.004 326.072 236.01 325.108 237.552Z" fill="#F0C7B1"/>
<path d="M298.247 202.666C280.959 202.592 266.929 213.769 266.887 227.634C266.841 241.502 280.823 252.794 298.104 252.873C315.388 252.941 329.418 241.769 329.461 227.905C329.509 214.038 315.535 202.747 298.247 202.666ZM325.108 237.552C322.787 241.27 319.323 242.734 304.496 242.408C295.588 242.211 292.503 238.819 286.442 240.262C280.7 238.493 277.378 234.359 279.947 228.413C291.651 217.119 325.172 217.861 327.616 225.129L327.432 232.765C326.993 234.004 326.072 236.01 325.108 237.552Z" fill="url(#paint16_radial_2032_235)"/>
<path d="M325.108 237.552C326.07 236.012 326.991 234.004 327.434 232.765L327.618 225.129C325.174 217.861 291.653 217.119 279.949 228.412C277.38 234.359 280.702 238.493 286.444 240.262C292.505 238.819 295.59 242.211 304.498 242.408C319.325 242.733 322.787 241.268 325.108 237.552Z" fill="url(#paint17_radial_2032_235)"/>
<path d="M274.676 225.661C292.376 215.058 305.414 214.382 326.426 215.733C308.887 212.971 288.688 214.975 274.676 225.661Z" fill="#C27B55"/>
<path d="M324.453 219.705C329.152 220.64 334.206 227.768 334.206 227.768L330.166 226.395C329.361 229.655 329.313 229.828 327.436 232.66V225.491C324.699 217.793 282.914 217.883 276.949 233.187C277.299 230.733 283.617 211.573 324.453 219.705ZM305.107 242.73C322.592 242.836 323.628 241.005 325.123 237.159C322.255 240.306 319.378 242.025 304.647 241.716C294.3 241.5 291.877 237.158 283.365 240.805C289.807 238.579 295.214 242.667 305.107 242.73Z" fill="#582311"/>
<path d="M331.482 285.995C331.546 327.631 297.815 361.445 256.135 361.502C214.462 361.57 180.622 327.87 180.557 286.225C180.493 244.592 214.224 210.646 255.903 210.58C297.577 210.515 331.421 244.353 331.482 285.995Z" fill="url(#paint18_radial_2032_235)"/>
<path d="M325.04 175.61C325.04 213.729 294.139 244.629 256.022 244.629C217.903 244.629 187.001 213.729 187.001 175.61C187.001 137.491 217.903 106.591 256.022 106.591C294.139 106.591 325.04 137.491 325.04 175.61Z" fill="url(#paint19_radial_2032_235)"/>
<path d="M171.357 212.77C189.677 194.413 202.206 201.883 227.656 206.762C229.211 207.061 239.288 209.595 237.429 213.147C236.54 214.848 233.682 214.645 232.086 214.616C206.893 214.145 194.643 196.22 171.357 212.77Z" fill="#2A232B"/>
<path d="M340.684 212.77C322.365 194.413 309.835 201.883 284.385 206.762C282.828 207.061 272.753 209.595 274.61 213.147C275.499 214.848 278.357 214.645 279.953 214.616C305.146 214.145 317.398 196.22 340.684 212.77Z" fill="#2A232B"/>
<path d="M257.362 298.628C256.711 298.924 255.181 298.924 254.697 298.439C254.697 298.439 243.109 294.476 244.578 290.681C246.904 284.677 268.002 289.28 267.984 290.681C267.938 294.255 257.362 298.628 257.362 298.628Z" fill="#E1AC8F"/>
<path d="M241.692 285.323C241.692 285.323 251.719 251.045 252.75 243.709C254.706 255.617 249.984 282.126 249.485 287.535C248.879 294.104 255.844 298.004 255.844 298.004C256.383 298.687 255.732 299.112 254.894 298.843L242.69 294.134C239.798 291.677 239.798 289.337 241.692 285.323ZM261.866 291.4C263.55 291.781 263.902 292.461 263.771 293.162C263.644 293.87 262.921 294.839 261.4 293.953C259.731 292.985 256.58 292.542 256.58 292.542C256.58 292.542 260.182 291.014 261.866 291.4Z" fill="#C27B55"/>
<path d="M156.222 242.446C150.704 237.841 143.801 225.994 140.719 209.387C140.064 205.984 139.597 202.485 139.1 198.78C137.018 183.235 132.557 165.119 135.643 146.559C139.348 123.853 156.388 99.2708 178.041 85.386C211.522 63.7194 296.149 54.0365 313.787 82.5571C324.018 82.1835 335.058 84.8559 342.681 90.7861C367.913 109.714 377.669 173.998 370.677 205.927C366.024 227.731 364.804 233.45 355.467 241.999C358.802 142.017 353.645 168.995 349.382 142.146C344.385 138.483 342.523 139.996 334.826 135.627C319.516 124.322 320.258 119.794 313.323 111.888C307.146 119.193 298.266 125.623 291.408 128.594C293.145 125.747 294.627 122.553 295.608 120.499L294.787 119.813C289.028 123.976 277.392 129.895 270.242 130.53C274.083 125.809 273.634 126.404 275.169 123.527C269.434 127.053 263.34 129.448 255.652 130.122C262.895 126.544 266.141 124.096 271.759 119.415L271.245 118.462C232.243 130.309 222.991 132.993 194.394 138.065C170.446 141.06 179.214 138.529 170.527 138.529C156.552 138.529 154.334 180.473 154.937 194.457C156.495 233.549 154.492 225.937 156.222 242.446Z" fill="#2A232B"/>
<path d="M370.677 205.927C366.024 227.731 364.804 233.45 355.467 241.999C358.802 142.017 353.645 168.995 349.382 142.146C344.385 138.483 342.523 139.996 334.826 135.627C319.516 124.322 320.258 119.794 313.323 111.888C307.146 119.193 298.266 125.623 291.408 128.594C293.145 125.747 294.627 122.553 295.608 120.499L294.787 119.813C289.028 123.976 277.392 129.895 270.242 130.53C274.083 125.809 273.634 126.404 275.169 123.527C269.434 127.053 263.34 129.448 255.652 130.122C262.895 126.544 266.141 124.096 271.759 119.415L271.245 118.462C232.243 130.309 222.991 132.993 194.394 138.065C170.446 141.06 179.214 138.529 170.527 138.529C156.552 138.529 154.334 180.473 154.937 194.457C156.495 233.551 154.492 225.937 156.222 242.448C150.704 237.843 143.801 225.996 140.719 209.389C140.064 205.986 139.597 202.487 139.1 198.782C137.018 183.237 132.557 165.121 135.643 146.561C138.57 128.623 160.908 102.241 176.179 88.1633C129.246 131.876 143.05 180.653 150.872 219.76C148.569 185.247 141.908 129.599 173.197 127.758C215.529 127.758 263.141 121.749 292.59 92.3008C290.749 105.184 289.15 107.513 279.947 116.715C287.309 111.194 296.512 107.513 300.193 98.3101C298.352 105.672 298.352 111.194 292.831 116.715C298.352 113.034 303.874 107.513 309.395 101.991C309.395 107.513 305.714 113.034 303.874 118.556C307.555 109.353 318.598 103.832 320.438 94.6291C314.917 118.556 343.204 131.412 351.946 136.473C363.91 153.038 364.37 188.008 361.609 216.996C371.732 183.866 367.131 127.271 337.222 88.1597C369.891 112.086 376.758 178.163 370.677 205.927ZM183.079 113.007C205.546 112.346 222.033 108.705 246.117 95.0616C222.95 105.214 208.29 110.058 183.079 113.007ZM244.276 105.184C256.166 100.25 264.439 89.5456 277.866 86.3191C265.492 90.6131 256.887 101.384 244.276 105.184ZM172.956 112.086C181.476 96.7659 199.68 84.07 222.65 82.178C203.958 85.6529 183.94 96.3831 172.956 112.086Z" fill="#1B141C"/>
<path d="M231.392 76.2238C255.475 65.928 277.398 66.9789 300.412 79.8772C276.259 69.5611 257.796 71.536 257.796 71.536C253.401 71.8802 246.374 71.7109 231.392 76.2238ZM326.179 90.9203C333.797 93.8541 336.975 98.3118 341.608 104.744C348.39 115.703 350.288 120.45 354.239 131.412C350.402 115.668 341.794 95.1664 326.179 90.9203ZM282.927 90.4602C269.831 101.509 260.336 107.461 234.153 116.227C254.844 111.313 268.031 105.517 282.927 90.4602ZM325.259 101.963C329.063 114.913 336.073 122.13 346.885 128.651C336.835 121.092 330.265 114.076 325.259 101.963ZM179.858 95.0615C179.858 95.0615 178.963 95.7241 177.489 96.8137C160.658 108.738 147.5 131.526 147.189 160.4C150.861 131.673 162.244 111.457 179.858 95.0615ZM188.6 103.344C202.877 95.8805 209.47 95.8216 233.233 91.8406C212.724 93.2707 202.579 94.248 188.6 103.344ZM227.34 111.127C218.938 115.342 199.222 120.063 199.222 119.851C192.307 121.386 180.32 124.05 180.32 124.05C184.962 123.462 192.926 122.531 199.494 121.121C199.494 121.37 215.684 117.468 220.438 115.013C225.657 112.55 223.889 113.516 229.094 110.246C229.092 110.246 228.427 110.581 227.34 111.127Z" fill="#3A353A"/>
<path d="M343.021 90.3498C335.238 84.2964 324.022 81.6239 314.087 81.9939C305.6 68.2747 278.839 64.3286 262.608 64.1593C238.121 63.9053 199.434 70.8827 177.741 84.9203C157.555 97.8628 139.048 122.257 135.097 146.467C132.733 160.678 134.769 175.402 137.176 189.498C138.354 196.308 138.962 203.173 140.176 209.486C143.668 228.309 151.762 240.087 156.907 243.665C154.947 225.526 157.085 234.466 155.489 194.431C154.748 177.257 157.891 137.901 171.115 139.105C180.103 139.74 172.982 141.297 194.49 138.606C222.736 133.596 231.974 130.964 271.405 118.988C265.227 124.138 262.013 126.475 253.736 130.436C253.718 130.418 253.718 130.436 253.718 130.436C253.46 130.565 253.184 130.694 252.926 130.804C259.771 130.76 268.287 128.402 273.722 125.062C272.973 126.464 270.719 129.014 269.049 131.136C276.124 131.136 288.816 124.808 295.111 120.258C294.228 122.099 292.161 126.63 289.937 129.847C292.037 128.798 297.067 127.431 307.109 118.933C309.152 117.221 311.49 114.902 313.33 112.73C319.494 119.758 319.124 124.723 334.551 136.105C342.204 140.449 344.273 139.096 348.871 142.455C352.931 169.047 358.32 140.992 354.871 243.278C365.178 234.149 366.42 228.506 371.214 206.045C378.041 174.879 368.75 109.653 343.021 90.3498ZM368.198 205.658C364.119 228.271 363.777 232.088 355.535 241.033C357.033 221.155 358.351 203.378 357.963 183.351C357.146 153.791 353.214 159.336 350.417 141.535C345.12 137.815 342.552 138.489 337.68 136.289C336.834 135.976 336.134 135.442 335.343 135.038C319.897 124.318 319.886 119.202 313.57 112.454C315.357 110.404 316.906 108.054 317.416 107.043C314.639 111.21 302.734 122.207 291.447 128.448C293.396 125.364 294.877 122.366 295.937 119.651C299.131 117.42 301.312 115.311 303.152 113.485C296.86 118.712 280.652 128.136 270.483 130.179C270.803 129.849 273.934 126.818 275.114 124.521C277.608 123.523 284.346 119.406 286.716 116.785C275.114 124.521 261.915 129.153 257.307 129.919C262.946 127.804 270.264 121.212 274.019 118.213C277.646 115.316 278.349 114.153 282.115 110.336C279.641 112.062 275.784 115.845 270.969 117.877C268.122 119.078 190.189 140.879 176.635 137.338C173.915 136.657 170.839 135.833 168.132 136.62C146.414 145.963 154.4 205.886 154.696 224.284C154.947 239.787 156.058 242.487 156.058 242.487C141.792 228.941 141.17 199.135 139.678 188.781C137.786 175.058 136.138 160.49 138.665 146.872C142.788 123.608 160.59 100.11 179.635 87.8651C208.106 69.3863 293 53.7548 314.066 82.6565C366.367 82.6565 373.703 168.748 368.198 205.658Z" fill="black"/>
<path opacity="0.2" d="M345.727 230.79C345.598 240.306 341.383 250.337 335.972 258.361C330.708 266.165 316.997 268.944 306.855 268.944C298.573 268.944 291.193 267.251 286.573 264.288C277.867 258.693 268.517 244.76 266.456 231.471C285.174 220.226 323.77 220.226 345.727 230.79ZM166.314 229.502C166.056 239.404 170.418 249.987 176.068 258.361C181.332 266.165 195.044 268.944 205.185 268.944C213.468 268.944 220.848 267.251 225.468 264.288C233.916 258.858 242.953 245.588 245.364 232.668C225.468 220.999 187.185 219.729 166.314 229.502Z" fill="white"/>
<path opacity="0.4" d="M345.727 230.79C323.77 220.244 285.174 220.226 266.474 231.453C266.161 229.428 266.014 227.422 266.051 225.453C266.456 210.269 288.174 204.876 306.653 204.876C319.684 204.876 335.07 207.581 340.04 213.6C344.199 218.661 345.819 224.606 345.727 230.79ZM205.388 204.876C192.357 204.876 176.97 207.581 172.001 213.6C168.136 218.293 166.461 223.778 166.313 229.502C187.203 219.729 225.468 220.999 245.345 232.649C245.805 230.22 246.045 227.809 245.971 225.453C245.566 210.269 223.848 204.876 205.388 204.876Z" fill="white"/>
<path d="M356.292 210.324C355.187 205.888 304.739 196.925 278.548 205.925C272.217 208.097 267.836 210.029 265.223 212.772V212.735C264.303 214.355 262.002 214.907 260.364 214.299C257.419 213.177 254.437 213.232 251.677 214.299C250.057 214.925 247.738 214.355 246.818 212.735V212.772C244.204 210.029 239.842 208.115 233.492 205.925C207.302 196.925 156.853 205.907 155.749 210.324C155.326 212.072 154.755 221.477 154.792 224.846C154.829 228.214 156.927 227.956 160.074 229.428C161.289 229.999 163.829 234.343 164.068 236.128C165.228 244.484 168.559 252.232 173.749 259.926C182.621 273.067 213.707 275.147 226.959 266.625C236.124 260.736 245.621 246.877 248.143 233.091C248.64 230.349 249.1 228.214 249.45 226.373L249.468 226.465C250.131 224.201 253.094 223.097 256.039 223.042C258.984 223.097 261.947 224.201 262.609 226.465L262.628 226.373C262.959 228.214 263.438 230.349 263.935 233.091C266.456 246.877 275.953 260.736 285.119 266.625C298.371 275.147 329.457 273.067 338.328 259.926C343.518 252.232 346.85 244.484 348.009 236.128C348.249 234.324 350.788 229.981 352.003 229.428C355.151 227.956 357.267 228.232 357.286 224.846C357.286 221.477 356.715 212.054 356.292 210.324ZM224.952 263.496C213.21 271.043 184.424 269.092 176.823 257.846C168.173 244.999 162.43 226.668 172.7 214.189C182.602 202.17 244.37 200.716 245.051 225.471C245.456 240.011 234.781 257.183 224.952 263.496ZM335.218 257.846C327.616 269.11 298.831 271.043 287.088 263.496C277.26 257.183 266.585 240.011 266.99 225.471C267.671 200.716 329.439 202.17 339.34 214.189C349.611 226.649 343.868 244.999 335.218 257.846Z" fill="#4D1F1F"/>
<path d="M155.473 212.312C155.565 211.391 155.657 210.674 155.749 210.305C156.853 205.87 207.302 196.906 233.492 205.907C239.824 208.078 244.204 210.011 246.818 212.753V212.717C246.818 212.698 206.326 191.33 155.473 212.312ZM355.261 228.066C356.494 227.514 357.23 226.778 357.249 224.809C357.285 221.459 356.715 212.036 356.292 210.287C355.187 205.851 304.739 196.888 278.548 205.888C272.511 207.968 268.26 209.827 265.609 212.367C279.45 201.416 335.862 199.226 350.991 214.244C354.12 217.373 355.114 223.299 355.261 228.066Z" fill="#5C2E2E"/>
<defs>
<linearGradient id="paint0_linear_2032_235" x1="256.02" y1="390.952" x2="256.02" y2="315.491" gradientUnits="userSpaceOnUse">
<stop stop-color="#E1AC8F" stop-opacity="0.8"/>
<stop offset="0.7" stop-color="#C27B55"/>
</linearGradient>
<linearGradient id="paint1_linear_2032_235" x1="256.021" y1="337.577" x2="256.021" y2="332.056" gradientUnits="userSpaceOnUse">
<stop offset="0.1" stop-color="#E8B9A0"/>
<stop offset="1" stop-color="#E1AC8F"/>
</linearGradient>
<radialGradient id="paint2_radial_2032_235" cx="0" cy="0" r="1" gradientUnits="userSpaceOnUse" gradientTransform="translate(207.572 228.068) rotate(179.978) scale(25.0313 22.0205)">
<stop stop-color="white"/>
<stop offset="0.544" stop-color="#FDFEFE"/>
<stop offset="0.74" stop-color="#F6F8F9"/>
<stop offset="0.879" stop-color="#EAEFF2"/>
<stop offset="0.992" stop-color="#D9E3E8"/>
<stop offset="1" stop-color="#D8E2E7"/>
</radialGradient>
<radialGradient id="paint3_radial_2032_235" cx="0" cy="0" r="1" gradientUnits="userSpaceOnUse" gradientTransform="translate(208.488 231.324) rotate(-14.4847) scale(10.904 10.9064)">
<stop stop-color="white"/>
<stop offset="1" stop-color="white" stop-opacity="0"/>
</radialGradient>
<radialGradient id="paint4_radial_2032_235" cx="0" cy="0" r="1" gradientUnits="userSpaceOnUse" gradientTransform="translate(208.489 231.336) rotate(0.512025) scale(10.8976 10.8978)">
<stop stop-color="white"/>
<stop offset="1" stop-color="white" stop-opacity="0"/>
</radialGradient>
<linearGradient id="paint5_linear_2032_235" x1="202.498" y1="239.143" x2="204.221" y2="237.089" gradientUnits="userSpaceOnUse">
<stop stop-color="white"/>
<stop offset="1" stop-color="white" stop-opacity="0"/>
</linearGradient>
<linearGradient id="paint6_linear_2032_235" x1="210.858" y1="228.151" x2="209.479" y2="229.795" gradientUnits="userSpaceOnUse">
<stop stop-color="white"/>
<stop offset="1" stop-color="white" stop-opacity="0"/>
</linearGradient>
<linearGradient id="paint7_linear_2032_235" x1="215.319" y1="223.598" x2="212.142" y2="227.384" gradientUnits="userSpaceOnUse">
<stop stop-color="white"/>
<stop offset="1" stop-color="white" stop-opacity="0"/>
</linearGradient>
<radialGradient id="paint8_radial_2032_235" cx="0" cy="0" r="1" gradientUnits="userSpaceOnUse" gradientTransform="translate(213.285 226.787) rotate(1.04861) scale(32.9405 23.1904)">
<stop stop-color="#E1AC8F"/>
<stop offset="0.7" stop-color="#E1AC8F" stop-opacity="0.3"/>
<stop offset="1" stop-color="#F0C7B1" stop-opacity="0"/>
</radialGradient>
<radialGradient id="paint9_radial_2032_235" cx="0" cy="0" r="1" gradientUnits="userSpaceOnUse" gradientTransform="translate(204.019 263.435) rotate(-2.60422) scale(46.9107 40.8323)">
<stop offset="0.9" stop-opacity="0"/>
<stop offset="1" stop-opacity="0.2"/>
</radialGradient>
<radialGradient id="paint10_radial_2032_235" cx="0" cy="0" r="1" gradientUnits="userSpaceOnUse" gradientTransform="translate(303.732 228.068) rotate(0.0216374) scale(25.0332 22.0222)">
<stop stop-color="white"/>
<stop offset="0.544" stop-color="#FDFEFE"/>
<stop offset="0.74" stop-color="#F6F8F9"/>
<stop offset="0.879" stop-color="#EAEFF2"/>
<stop offset="0.992" stop-color="#D9E3E8"/>
<stop offset="1" stop-color="#D8E2E7"/>
</radialGradient>
<radialGradient id="paint11_radial_2032_235" cx="0" cy="0" r="1" gradientUnits="userSpaceOnUse" gradientTransform="translate(303.274 231.324) rotate(-14.4847) scale(10.9042 10.9065)">
<stop stop-color="white"/>
<stop offset="1" stop-color="white" stop-opacity="0"/>
</radialGradient>
<radialGradient id="paint12_radial_2032_235" cx="0" cy="0" r="1" gradientUnits="userSpaceOnUse" gradientTransform="translate(303.275 231.336) rotate(0.512025) scale(10.898 10.8982)">
<stop stop-color="white"/>
<stop offset="1" stop-color="white" stop-opacity="0"/>
</radialGradient>
<linearGradient id="paint13_linear_2032_235" x1="297.285" y1="239.143" x2="299.007" y2="237.089" gradientUnits="userSpaceOnUse">
<stop stop-color="white"/>
<stop offset="1" stop-color="white" stop-opacity="0"/>
</linearGradient>
<linearGradient id="paint14_linear_2032_235" x1="305.644" y1="228.151" x2="304.266" y2="229.795" gradientUnits="userSpaceOnUse">
<stop stop-color="white"/>
<stop offset="1" stop-color="white" stop-opacity="0"/>
</linearGradient>
<linearGradient id="paint15_linear_2032_235" x1="310.106" y1="223.598" x2="306.929" y2="227.384" gradientUnits="userSpaceOnUse">
<stop stop-color="white"/>
<stop offset="1" stop-color="white" stop-opacity="0"/>
</linearGradient>
<radialGradient id="paint16_radial_2032_235" cx="0" cy="0" r="1" gradientUnits="userSpaceOnUse" gradientTransform="translate(298.022 226.787) rotate(178.951) scale(32.9405 23.1904)">
<stop stop-color="#E1AC8F"/>
<stop offset="0.7" stop-color="#E1AC8F" stop-opacity="0.3"/>
<stop offset="1" stop-color="#F0C7B1" stop-opacity="0"/>
</radialGradient>
<radialGradient id="paint17_radial_2032_235" cx="0" cy="0" r="1" gradientUnits="userSpaceOnUse" gradientTransform="translate(307.287 263.435) rotate(-177.396) scale(46.9107 40.8323)">
<stop offset="0.9" stop-opacity="0"/>
<stop offset="1" stop-opacity="0.2"/>
</radialGradient>
<radialGradient id="paint18_radial_2032_235" cx="0" cy="0" r="1" gradientUnits="userSpaceOnUse" gradientTransform="translate(256.02 286.043) scale(75.4611 75.4611)">
<stop stop-color="#FFE4D6" stop-opacity="0.5"/>
<stop offset="0.9" stop-color="#F0C7B1" stop-opacity="0"/>
</radialGradient>
<radialGradient id="paint19_radial_2032_235" cx="0" cy="0" r="1" gradientUnits="userSpaceOnUse" gradientTransform="translate(256.02 175.612) scale(68.0991)">
<stop stop-color="#FFE4D6" stop-opacity="0.5"/>
<stop offset="0.9" stop-color="#F0C7B1" stop-opacity="0"/>
</radialGradient>
</defs>
</svg>
